<?xml version="1.0" encoding="utf-8" standalone="no"?>
<!DOCTYPE svg PUBLIC "-//W3C//DTD SVG 1.1//EN"
  "http://www.w3.org/Graphics/SVG/1.1/DTD/svg11.dtd">
<svg xmlns:xlink="http://www.w3.org/1999/xlink" width="686.88pt" height="352.534pt" viewBox="0 0 686.88 352.534" xmlns="http://www.w3.org/2000/svg" version="1.1">
 <metadata>
  <rdf:RDF xmlns:dc="http://purl.org/dc/elements/1.1/" xmlns:cc="http://creativecommons.org/ns#" xmlns:rdf="http://www.w3.org/1999/02/22-rdf-syntax-ns#">
   <cc:Work>
    <dc:type rdf:resource="http://purl.org/dc/dcmitype/StillImage"/>
    <dc:format>image/svg+xml</dc:format>
    <dc:creator>
     <cc:Agent>
      <dc:title>Matplotlib v3.10.8, https://matplotlib.org/</dc:title>
     </cc:Agent>
    </dc:creator>
   </cc:Work>
  </rdf:RDF>
 </metadata>
 <defs>
  <style type="text/css">*{stroke-linejoin: round; stroke-linecap: butt}</style>
 </defs>
 <g id="figure_1">
  <g id="patch_1">
   <path d="M 0 352.534 
L 686.88 352.534 
L 686.88 0 
L 0 0 
z
" style="fill: #ffffff"/>
  </g>
  <g id="axes_1">
   <g id="patch_2">
    <path d="M 35.424 174.69112 
L 651.456 174.69112 
Q 671.544 174.69112 671.544 165.3772 
L 671.544 69.13336 
Q 671.544 59.81944 651.456 59.81944 
L 35.424 59.81944 
Q 15.336 59.81944 15.336 69.13336 
L 15.336 165.3772 
Q 15.336 174.69112 35.424 174.69112 
z
" clip-path="url(#p0185bbf33b)" style="fill: #f3f6f8"/>
   </g>
   <g id="patch_3">
    <path d="M 55.512 151.40632 
L 169.344 151.40632 
Q 192.78 151.40632 192.78 140.54008 
L 192.78 103.2844 
Q 192.78 92.41816 169.344 92.41816 
L 55.512 92.41816 
Q 32.076 92.41816 32.076 103.2844 
L 32.076 140.54008 
Q 32.076 151.40632 55.512 151.40632 
z
" clip-path="url(#p0185bbf33b)" style="fill: #eaf2f8; stroke: #3e7cb1; stroke-width: 1.5; stroke-linejoin: miter"/>
   </g>
   <g id="patch_4">
    <path d="M 209.52 151.40632 
L 323.352 151.40632 
Q 346.788 151.40632 346.788 140.54008 
L 346.788 103.2844 
Q 346.788 92.41816 323.352 92.41816 
L 209.52 92.41816 
Q 186.084 92.41816 186.084 103.2844 
L 186.084 140.54008 
Q 186.084 151.40632 209.52 151.40632 
z
" clip-path="url(#p0185bbf33b)" style="fill: #e7f4f1; stroke: #2a9d8f; stroke-width: 1.5; stroke-linejoin: miter"/>
   </g>
   <g id="patch_5">
    <path d="M 363.528 151.40632 
L 477.36 151.40632 
Q 500.796 151.40632 500.796 140.54008 
L 500.796 103.2844 
Q 500.796 92.41816 477.36 92.41816 
L 363.528 92.41816 
Q 340.092 92.41816 340.092 103.2844 
L 340.092 140.54008 
Q 340.092 151.40632 363.528 151.40632 
z
" clip-path="url(#p0185bbf33b)" style="fill: #eaf2f8; stroke: #3e7cb1; stroke-width: 1.5; stroke-linejoin: miter"/>
   </g>
   <g id="patch_6">
    <path d="M 517.536 151.40632 
L 631.368 151.40632 
Q 654.804 151.40632 654.804 140.54008 
L 654.804 103.2844 
Q 654.804 92.41816 631.368 92.41816 
L 517.536 92.41816 
Q 494.1 92.41816 494.1 103.2844 
L 494.1 140.54008 
Q 494.1 151.40632 517.536 151.40632 
z
" clip-path="url(#p0185bbf33b)" style="fill: #fff4de; stroke: #e9a23b; stroke-width: 1.5; stroke-linejoin: miter"/>
   </g>
   <g id="patch_7">
    <path d="M 181.384049 121.91224 
Q 189.429578 121.91224 195.798057 121.91224 
" clip-path="url(#p0185bbf33b)" style="fill: none; stroke: #657483; stroke-width: 1.5; stroke-linecap: round"/>
    <path d="M 190.598057 119.31224 
L 195.798057 121.91224 
L 190.598057 124.51224 
z
" clip-path="url(#p0185bbf33b)" style="fill: #657483; stroke: #657483; stroke-width: 1.5; stroke-linecap: round"/>
   </g>
   <g id="patch_8">
    <path d="M 335.392049 121.91224 
Q 343.437578 121.91224 349.806057 121.91224 
" clip-path="url(#p0185bbf33b)" style="fill: none; stroke: #657483; stroke-width: 1.5; stroke-linecap: round"/>
    <path d="M 344.606057 119.31224 
L 349.806057 121.91224 
L 344.606057 124.51224 
z
" clip-path="url(#p0185bbf33b)" style="fill: #657483; stroke: #657483; stroke-width: 1.5; stroke-linecap: round"/>
   </g>
   <g id="patch_9">
    <path d="M 489.400049 121.91224 
Q 497.445578 121.91224 503.814057 121.91224 
" clip-path="url(#p0185bbf33b)" style="fill: none; stroke: #657483; stroke-width: 1.5; stroke-linecap: round"/>
    <path d="M 498.614057 119.31224 
L 503.814057 121.91224 
L 498.614057 124.51224 
z
" clip-path="url(#p0185bbf33b)" style="fill: #657483; stroke: #657483; stroke-width: 1.5; stroke-linecap: round"/>
   </g>
   <g id="patch_10">
    <path d="M 55.512 260.06872 
L 196.128 260.06872 
Q 219.564 260.06872 219.564 249.20248 
L 219.564 215.05144 
Q 219.564 204.1852 196.128 204.1852 
L 55.512 204.1852 
Q 32.076 204.1852 32.076 215.05144 
L 32.076 249.20248 
Q 32.076 260.06872 55.512 260.06872 
z
" clip-path="url(#p0185bbf33b)" style="fill: #eaf2f8; stroke: #3e7cb1; stroke-width: 1.5; stroke-linejoin: miter"/>
   </g>
   <g id="patch_11">
    <path d="M 572.470204 145.485044 
Q 350.13503 177.795901 129.459474 209.865573 
" clip-path="url(#p0185bbf33b)" style="fill: none; stroke: #657483; stroke-width: 1.5; stroke-linecap: round"/>
    <path d="M 134.979336 211.690711 
L 129.459474 209.865573 
L 134.231501 206.544767 
z
" clip-path="url(#p0185bbf33b)" style="fill: #657483; stroke: #657483; stroke-width: 1.5; stroke-linecap: round"/>
   </g>
   <g id="patch_12">
    <path d="M 273.132 260.06872 
L 413.748 260.06872 
Q 437.184 260.06872 437.184 249.20248 
L 437.184 215.05144 
Q 437.184 204.1852 413.748 204.1852 
L 273.132 204.1852 
Q 249.696 204.1852 249.696 215.05144 
L 249.696 249.20248 
Q 249.696 260.06872 273.132 260.06872 
z
" clip-path="url(#p0185bbf33b)" style="fill: #e7f4f1; stroke: #2a9d8f; stroke-width: 1.5; stroke-linejoin: miter"/>
   </g>
   <g id="patch_13">
    <path d="M 572.523845 145.741214 
Q 458.944944 177.796058 346.980047 209.395389 
" clip-path="url(#p0185bbf33b)" style="fill: none; stroke: #657483; stroke-width: 1.5; stroke-linecap: round"/>
    <path d="M 352.690758 210.485245 
L 346.980047 209.395389 
L 351.278358 205.480734 
z
" clip-path="url(#p0185bbf33b)" style="fill: #657483; stroke: #657483; stroke-width: 1.5; stroke-linecap: round"/>
   </g>
   <g id="patch_14">
    <path d="M 490.752 260.06872 
L 631.368 260.06872 
Q 654.804 260.06872 654.804 249.20248 
L 654.804 215.05144 
Q 654.804 204.1852 631.368 204.1852 
L 490.752 204.1852 
Q 467.316 204.1852 467.316 215.05144 
L 467.316 249.20248 
Q 467.316 260.06872 490.752 260.06872 
z
" clip-path="url(#p0185bbf33b)" style="fill: #fff4de; stroke: #e9a23b; stroke-width: 1.5; stroke-linejoin: miter"/>
   </g>
   <g id="patch_15">
    <path d="M 574.04903 147.158853 
Q 567.755487 177.798259 561.799376 206.794911 
" clip-path="url(#p0185bbf33b)" style="fill: none; stroke: #657483; stroke-width: 1.5; stroke-linecap: round"/>
    <path d="M 565.392475 202.224392 
L 561.799376 206.794911 
L 560.29882 201.178121 
z
" clip-path="url(#p0185bbf33b)" style="fill: #657483; stroke: #657483; stroke-width: 1.5; stroke-linecap: round"/>
   </g>
   <g id="patch_16">
    <path d="M 219.564 331.47544 
L 467.316 331.47544 
Q 490.752 331.47544 490.752 320.6092 
L 490.752 292.66744 
Q 490.752 281.8012 467.316 281.8012 
L 219.564 281.8012 
Q 196.128 281.8012 196.128 292.66744 
L 196.128 320.6092 
Q 196.128 331.47544 219.564 331.47544 
z
" clip-path="url(#p0185bbf33b)" style="fill: #ffffff; stroke: #2a9d8f; stroke-width: 1.5; stroke-linejoin: miter"/>
   </g>
   <g id="patch_17">
    <path d="M 127.795768 254.169497 
Q 234.629098 270.934818 339.805653 287.440143 
" clip-path="url(#p0185bbf33b)" style="fill: none; stroke: #657483; stroke-width: 1.5; stroke-linecap: round"/>
    <path d="M 335.071608 284.065411 
L 339.805653 287.440143 
L 334.26544 289.202539 
z
" clip-path="url(#p0185bbf33b)" style="fill: #657483; stroke: #657483; stroke-width: 1.5; stroke-linecap: round"/>
   </g>
   <g id="patch_18">
    <path d="M 343.44 255.856309 
Q 343.44 270.934464 343.44 284.335569 
" clip-path="url(#p0185bbf33b)" style="fill: none; stroke: #657483; stroke-width: 1.5; stroke-linecap: round"/>
    <path d="M 346.04 279.135569 
L 343.44 284.335569 
L 340.84 279.135569 
z
" clip-path="url(#p0185bbf33b)" style="fill: #657483; stroke: #657483; stroke-width: 1.5; stroke-linecap: round"/>
   </g>
   <g id="patch_19">
    <path d="M 559.084232 254.169497 
Q 452.250902 270.934818 347.074347 287.440143 
" clip-path="url(#p0185bbf33b)" style="fill: none; stroke: #657483; stroke-width: 1.5; stroke-linecap: round"/>
    <path d="M 352.61456 289.202539 
L 347.074347 287.440143 
L 351.808392 284.065411 
z
" clip-path="url(#p0185bbf33b)" style="fill: #657483; stroke: #657483; stroke-width: 1.5; stroke-linecap: round"/>
   </g>
   <g id="text_1">
    <text style="font-weight: 700; font-size: 12.5px; font-family: 'Microsoft YaHei'; text-anchor: start; fill: #183b5b" x="38.772" y="76.89496" transform="rotate(-0 38.772 76.89496)">数据治理与验证</text>
   </g>
   <g id="text_2">
    <text style="font-size: 11.5px; font-family: 'Microsoft YaHei'; fill: #1e2a36" transform="translate(89.428 117.44467)">原始数据</text>
    <text style="font-size: 11.5px; font-family: 'Microsoft YaHei'; fill: #1e2a36" transform="translate(72.178 132.713795)">样本与字段审计</text>
   </g>
   <g id="text_3">
    <text style="font-size: 11.5px; font-family: 'Microsoft YaHei'; fill: #1e2a36" transform="translate(243.436 117.44467)">数据治理</text>
    <text style="font-size: 11.5px; font-family: 'Microsoft YaHei'; fill: #1e2a36" transform="translate(220.436 132.713795)">缺失、类型与边界</text>
   </g>
   <g id="text_4">
    <text style="font-size: 11.5px; font-family: 'Microsoft YaHei'; fill: #1e2a36" transform="translate(391.694 117.44467)">折内预处理</text>
    <text style="font-size: 11.5px; font-family: 'Microsoft YaHei'; fill: #1e2a36" transform="translate(374.444 132.713795)">周期编码与标准化</text>
   </g>
   <g id="text_5">
    <text style="font-size: 11.5px; font-family: 'Microsoft YaHei'; fill: #1e2a36" transform="translate(551.452 117.44467)">固定验证</text>
    <text style="font-size: 11.5px; font-family: 'Microsoft YaHei'; fill: #1e2a36" transform="translate(522.702 132.713795)">五折选模与锁定评估</text>
   </g>
   <g id="text_6">
    <text style="font-weight: 700; font-size: 12.5px; font-family: 'Microsoft YaHei'; text-anchor: start; fill: #183b5b" x="38.772" y="191.76664" transform="rotate(-0 38.772 191.76664)">三项任务建模</text>
   </g>
   <g id="text_7">
    <text style="font-weight: 700; font-size: 12px; font-family: 'Microsoft YaHei'; fill: #1e2a36" transform="translate(107.82 227.465148)">任务一</text>
    <text style="font-weight: 700; font-size: 12px; font-family: 'Microsoft YaHei'; fill: #1e2a36" transform="translate(89.82 243.398148)">睡眠质量回归</text>
   </g>
   <g id="text_8">
    <text style="font-weight: 700; font-size: 12px; font-family: 'Microsoft YaHei'; fill: #1e2a36" transform="translate(325.44 227.465148)">任务二</text>
    <text style="font-weight: 700; font-size: 12px; font-family: 'Microsoft YaHei'; fill: #1e2a36" transform="translate(295.44 243.398148)">生产力与精力分析</text>
   </g>
   <g id="text_9">
    <text style="font-weight: 700; font-size: 12px; font-family: 'Microsoft YaHei'; fill: #1e2a36" transform="translate(543.06 227.465148)">任务三</text>
    <text style="font-weight: 700; font-size: 12px; font-family: 'Microsoft YaHei'; fill: #1e2a36" transform="translate(525.06 243.398148)">综合健康预测</text>
   </g>
   <g id="text_10">
    <text style="font-weight: 700; font-size: 11.8px; font-family: 'Microsoft YaHei'; fill: #1e2a36" transform="translate(319.84 302.054204)">统一输出</text>
    <text style="font-weight: 700; font-size: 11.8px; font-family: 'Microsoft YaHei'; fill: #1e2a36" transform="translate(254.94 317.721654)">性能评估、变量重要性与误差诊断</text>
   </g>
   <g id="text_11">
    <text style="font-weight: 700; font-size: 16px; font-family: 'Microsoft YaHei'; text-anchor: start; fill: #1e2a36" x="8.64" y="21.43" transform="rotate(-0 8.64 21.43)">三项任务统一建模技术路线</text>
   </g>
  </g>
 </g>
 <defs>
  <clipPath id="p0185bbf33b">
   <rect x="8.64" y="33.43" width="669.6" height="310.464"/>
  </clipPath>
 </defs>
</svg>
